<?xml version="1.0" encoding="utf-8"?>
<!-- Generator: Adobe Illustrator 23.0.0, SVG Export Plug-In . SVG Version: 6.00 Build 0)  -->
<svg version="1.1" id="Ebene_1" xmlns="http://www.w3.org/2000/svg" xmlns:xlink="http://www.w3.org/1999/xlink" x="0px" y="0px"
	 viewBox="0 0 800 800" style="enable-background:new 0 0 800 800;" xml:space="preserve">
<style type="text/css">
	.st0{fill:none;}
	.st1{fill:#323232;}
	.st2{fill:#010202;}
	.st3{fill:#FFFFFF;}
</style>
<rect x="-1816.77" y="31" class="st0" width="745.92" height="739"/>
<path class="st1" d="M-1240.7,355.46l-28.08-3.28c-3.84-14.64-9.6-28.64-16.96-41.76l17.28-21.84c6.4-8.08,5.68-19.6-1.52-26.88
	l-33.68-33.68c-7.28-7.28-18.8-7.92-26.88-1.52l-21.2,16.8c-13.76-8.08-28.48-14.24-43.92-18.4l-3.2-27.44
	c-1.2-10.24-9.84-17.92-20.08-17.92h-47.76c-10.24,0-18.88,7.68-20.08,17.92l-3.2,27.44c-15.84,4.24-30.96,10.64-45.04,19.04
	l-22-17.44c-8.08-6.4-19.6-5.68-26.88,1.52l-33.76,33.76c-7.28,7.28-7.92,18.8-1.52,26.88l18.4,23.28
	c-7.36,13.28-12.96,27.44-16.64,42.16l-29.44,3.36c-10.24,1.2-17.92,9.84-17.92,20.08v47.76c0,10.24,7.68,18.88,17.92,20.08
	l31.04,3.6c3.92,13.44,9.36,26.4,16.24,38.56l-19.6,24.72c-6.4,8.08-5.68,19.6,1.52,26.88l33.76,33.76
	c7.28,7.28,18.8,7.92,26.88,1.52l24.56-19.44c12.64,7.28,26.08,12.96,40.08,16.96l3.68,31.6c1.2,10.24,9.84,17.92,20.08,17.92h47.76
	c10.24,0,18.88-7.68,20.08-17.92l3.52-30.48c15.04-3.92,29.44-9.76,42.96-17.36l23.76,18.8c8.08,6.4,19.6,5.68,26.88-1.52
	l33.76-33.76c7.28-7.28,7.92-18.8,1.52-26.88l-18.48-23.44c7.68-13.28,13.68-27.44,17.68-42.24l28.48-3.28
	c10.24-1.2,17.92-9.84,17.92-20.08v-47.76C-1222.77,365.3-1230.45,356.66-1240.7,355.46z M-1443.81,532.62
	c-72.97,0-132.12-59.15-132.12-132.12s59.15-132.12,132.12-132.12s132.12,59.15,132.12,132.12S-1370.85,532.62-1443.81,532.62z"/>
<path class="st1" d="M-296.47,226.43h-47.57c-4.46-15.96-14.72-29.36-29.02-37.86c-14.74-8.76-32.01-11.26-48.62-7.02
	c-22.3,5.68-39.79,22.8-45.97,44.88h-235.09c-9.71,0-17.61,7.9-17.61,17.61c0,9.71,7.9,17.61,17.61,17.61h235.09
	c7.89,28.18,33.66,46.87,61.81,46.87c5.23,0,10.54-0.64,15.83-1.99c22.3-5.68,39.79-22.8,45.97-44.88h47.58
	c9.71,0,17.61-7.9,17.61-17.61C-278.86,234.33-286.76,226.43-296.47,226.43z M-376.58,244.04c0,16.14-13.13,29.27-29.27,29.27
	c-16.14,0-29.27-13.13-29.27-29.27c0-16.14,13.13-29.27,29.27-29.27C-389.71,214.77-376.58,227.9-376.58,244.04z"/>
<path class="st1" d="M-702.75,417.91h31.95c7.89,28.18,33.66,46.87,61.82,46.87c5.22,0,10.53-0.64,15.82-1.99
	c22.3-5.68,39.79-22.8,45.97-44.88h250.71c9.71,0,17.61-7.9,17.61-17.61s-7.9-17.61-17.61-17.61h-250.71
	c-9.35-33.41-43.84-53.49-77.64-44.88c-22.3,5.68-39.79,22.8-45.97,44.88h-31.95c-9.71,0-17.61,7.9-17.61,17.61
	S-712.46,417.91-702.75,417.91z M-638.26,400.3c0-16.14,13.13-29.27,29.27-29.27c16.14,0,29.27,13.13,29.27,29.27
	s-13.13,29.27-29.27,29.27C-625.13,429.57-638.26,416.44-638.26,400.3z"/>
<path class="st1" d="M-296.47,538.95h-78.83c-4.46-15.96-14.72-29.36-29.02-37.86c-14.74-8.76-32.01-11.25-48.62-7.02
	c-22.3,5.68-39.79,22.8-45.97,44.88h-203.84c-9.71,0-17.61,7.9-17.61,17.61s7.9,17.61,17.61,17.61h203.83
	c4.46,15.96,14.72,29.36,29.02,37.86c10.05,5.97,21.28,9.03,32.68,9.03c5.31,0,10.66-0.66,15.95-2.01
	c22.3-5.68,39.79-22.8,45.97-44.88h78.83c9.71,0,17.61-7.9,17.61-17.61S-286.76,538.95-296.47,538.95z M-407.83,556.56
	c0,16.14-13.13,29.27-29.27,29.27c-16.14,0-29.27-13.13-29.27-29.27c0-16.14,13.13-29.27,29.27-29.27
	C-420.96,527.29-407.83,540.42-407.83,556.56z"/>
<g>
	<path class="st1" d="M596.67,483.08C596.81,483.01,597.59,481.31,596.67,483.08L596.67,483.08z"/>
	<path class="st1" d="M511.23,586.45C507.84,589.26,511.96,586.26,511.23,586.45L511.23,586.45z"/>
	<path class="st1" d="M595.89,484.62c0.35-0.69,0.59-1.18,0.78-1.53c-0.08,0.04,0.05-0.46,0.85-2.52
		c12.59-32.28,17.74-68.01,13.6-104.84c-13.65-121.29-123.04-208.54-244.33-194.89C245.5,194.48,158.25,303.87,171.9,425.16
		c13.65,121.29,123.04,208.54,244.33,194.89c33.85-3.81,65.05-15.08,92.15-31.98c1.82-1.14,2.61-1.56,2.86-1.62
		c0.32-0.26,0.7-0.58,1.17-0.95c14.34-11.63,122.08,29.33,133.08,14.59C653.27,589.62,590.02,496.33,595.89,484.62z M411.55,578.53
		c-98.36,11.07-187.07-59.69-198.14-158.05c-11.07-98.36,59.69-187.07,158.05-198.14S558.53,282.04,569.6,380.4
		C580.67,478.75,509.91,567.46,411.55,578.53z"/>
</g>
<circle class="st1" cx="307.11" cy="400.44" r="28.07"/>
<circle class="st1" cx="391.4" cy="400.44" r="28.07"/>
<circle class="st1" cx="475.91" cy="400.44" r="28.07"/>
<path class="st1" d="M1217.64,400.54l188.69-188.69c7.33-7.33,7.33-19.26,0-26.59c-7.33-7.33-19.26-7.33-26.59,0l-201.99,201.99
	c-7.33,7.33-7.33,19.26,0,26.59l202.01,202.01c3.53,3.41,8.16,5.28,13.06,5.28c0.11,0,0.22,0,0.34,0c5.02-0.09,9.71-2.13,13.2-5.74
	c7.07-7.33,7.07-18.8-0.02-26.15L1217.64,400.54z"/>
<rect x="-1816.77" y="-998.16" class="st0" width="745.92" height="739"/>
<path d="M-1240.7-673.7l-28.08-3.28c-3.84-14.64-9.6-28.64-16.96-41.76l17.28-21.84c6.4-8.08,5.68-19.6-1.52-26.88l-33.68-33.68
	c-7.28-7.28-18.8-7.92-26.88-1.52l-21.2,16.8c-13.76-8.08-28.48-14.24-43.92-18.4l-3.2-27.44c-1.2-10.24-9.84-17.92-20.08-17.92
	h-47.76c-10.24,0-18.88,7.68-20.08,17.92l-3.2,27.44c-15.84,4.24-30.96,10.64-45.04,19.04l-22-17.44c-8.08-6.4-19.6-5.68-26.88,1.52
	l-33.76,33.76c-7.28,7.28-7.92,18.8-1.52,26.88l18.4,23.28c-7.36,13.28-12.96,27.44-16.64,42.16l-29.44,3.36
	c-10.24,1.2-17.92,9.84-17.92,20.08v47.76c0,10.24,7.68,18.88,17.92,20.08l31.04,3.6c3.92,13.44,9.36,26.4,16.24,38.56l-19.6,24.72
	c-6.4,8.08-5.68,19.6,1.52,26.88l33.76,33.76c7.28,7.28,18.8,7.92,26.88,1.52l24.56-19.44c12.64,7.28,26.08,12.96,40.08,16.96
	l3.68,31.6c1.2,10.24,9.84,17.92,20.08,17.92h47.76c10.24,0,18.88-7.68,20.08-17.92l3.52-30.48c15.04-3.92,29.44-9.76,42.96-17.36
	l23.76,18.8c8.08,6.4,19.6,5.68,26.88-1.52l33.76-33.76c7.28-7.28,7.92-18.8,1.52-26.88l-18.48-23.44
	c7.68-13.28,13.68-27.44,17.68-42.24l28.48-3.28c10.24-1.2,17.92-9.84,17.92-20.08v-47.76
	C-1222.77-663.86-1230.45-672.5-1240.7-673.7z M-1443.81-496.54c-72.97,0-132.12-59.15-132.12-132.12s59.15-132.12,132.12-132.12
	s132.12,59.15,132.12,132.12S-1370.85-496.54-1443.81-496.54z"/>
<path class="st2" d="M-296.47-802.73h-47.57c-4.46-15.96-14.72-29.36-29.02-37.86c-14.74-8.76-32.01-11.26-48.62-7.02
	c-22.3,5.68-39.79,22.8-45.97,44.88h-235.09c-9.71,0-17.61,7.9-17.61,17.61c0,9.71,7.9,17.61,17.61,17.61h235.09
	c7.89,28.18,33.66,46.87,61.81,46.87c5.23,0,10.54-0.64,15.83-1.99c22.3-5.68,39.79-22.8,45.97-44.88h47.58
	c9.71,0,17.61-7.9,17.61-17.61C-278.86-794.83-286.76-802.73-296.47-802.73z M-376.58-785.12c0,16.14-13.13,29.27-29.27,29.27
	c-16.14,0-29.27-13.13-29.27-29.27c0-16.14,13.13-29.27,29.27-29.27C-389.71-814.39-376.58-801.26-376.58-785.12z"/>
<path class="st2" d="M-702.75-611.25h31.95c7.89,28.18,33.66,46.87,61.82,46.87c5.22,0,10.53-0.64,15.82-1.99
	c22.3-5.68,39.79-22.8,45.97-44.88h250.71c9.71,0,17.61-7.9,17.61-17.61s-7.9-17.61-17.61-17.61h-250.71
	c-9.35-33.41-43.84-53.49-77.64-44.88c-22.3,5.68-39.79,22.8-45.97,44.88h-31.95c-9.71,0-17.61,7.9-17.61,17.61
	S-712.46-611.25-702.75-611.25z M-638.26-628.86c0-16.14,13.13-29.27,29.27-29.27c16.14,0,29.27,13.13,29.27,29.27
	c0,16.14-13.13,29.27-29.27,29.27C-625.13-599.59-638.26-612.72-638.26-628.86z"/>
<path class="st2" d="M-296.47-490.21h-78.83c-4.46-15.96-14.72-29.36-29.02-37.86c-14.74-8.76-32.01-11.25-48.62-7.02
	c-22.3,5.68-39.79,22.8-45.97,44.88h-203.84c-9.71,0-17.61,7.9-17.61,17.61c0,9.71,7.9,17.61,17.61,17.61h203.83
	c4.46,15.96,14.72,29.36,29.02,37.86c10.05,5.97,21.28,9.03,32.68,9.03c5.31,0,10.66-0.66,15.95-2.01
	c22.3-5.68,39.79-22.8,45.97-44.88h78.83c9.71,0,17.61-7.9,17.61-17.61C-278.86-482.31-286.76-490.21-296.47-490.21z M-407.83-472.6
	c0,16.14-13.13,29.27-29.27,29.27c-16.14,0-29.27-13.13-29.27-29.27c0-16.14,13.13-29.27,29.27-29.27
	C-420.96-501.87-407.83-488.74-407.83-472.6z"/>
<g>
	<path class="st2" d="M596.67-546.07C596.81-546.15,597.59-547.85,596.67-546.07L596.67-546.07z"/>
	<path class="st2" d="M511.23-442.71C507.84-439.9,511.96-442.9,511.23-442.71L511.23-442.71z"/>
	<path class="st2" d="M595.89-544.54c0.35-0.69,0.59-1.18,0.78-1.53c-0.08,0.04,0.05-0.46,0.85-2.52
		c12.59-32.28,17.74-68.01,13.6-104.84c-13.65-121.29-123.04-208.54-244.33-194.89C245.5-834.67,158.25-725.28,171.9-604
		c13.65,121.29,123.04,208.54,244.33,194.89c33.85-3.81,65.05-15.08,92.15-31.98c1.82-1.14,2.61-1.56,2.86-1.62
		c0.32-0.26,0.7-0.58,1.17-0.95c14.34-11.63,122.08,29.33,133.08,14.59C653.27-439.54,590.02-532.82,595.89-544.54z M411.55-450.62
		c-98.36,11.07-187.07-59.69-198.14-158.05c-11.07-98.36,59.69-187.07,158.05-198.14c98.36-11.07,187.07,59.69,198.14,158.05
		C580.67-550.4,509.91-461.69,411.55-450.62z"/>
</g>
<circle class="st2" cx="307.11" cy="-628.71" r="28.07"/>
<circle class="st2" cx="391.4" cy="-628.71" r="28.07"/>
<circle class="st2" cx="475.91" cy="-628.71" r="28.07"/>
<path class="st2" d="M1217.64-628.62l188.69-188.69c7.33-7.33,7.33-19.26,0-26.59c-7.33-7.33-19.26-7.33-26.59,0l-201.99,201.99
	c-7.33,7.33-7.33,19.26,0,26.59l202.01,202.01c3.53,3.41,8.16,5.28,13.06,5.28c0.11,0,0.22,0,0.34,0c5.02-0.09,9.71-2.13,13.2-5.74
	c7.07-7.33,7.07-18.8-0.02-26.15L1217.64-628.62z"/>
<rect x="-1816.77" y="-2032.41" class="st0" width="745.92" height="739"/>
<path class="st3" d="M-1240.7-1707.95l-28.08-3.28c-3.84-14.64-9.6-28.64-16.96-41.76l17.28-21.84c6.4-8.08,5.68-19.6-1.52-26.88
	l-33.68-33.68c-7.28-7.28-18.8-7.92-26.88-1.52l-21.2,16.8c-13.76-8.08-28.48-14.24-43.92-18.4l-3.2-27.44
	c-1.2-10.24-9.84-17.92-20.08-17.92h-47.76c-10.24,0-18.88,7.68-20.08,17.92l-3.2,27.44c-15.84,4.24-30.96,10.64-45.04,19.04
	l-22-17.44c-8.08-6.4-19.6-5.68-26.88,1.52l-33.76,33.76c-7.28,7.28-7.92,18.8-1.52,26.88l18.4,23.28
	c-7.36,13.28-12.96,27.44-16.64,42.16l-29.44,3.36c-10.24,1.2-17.92,9.84-17.92,20.08v47.76c0,10.24,7.68,18.88,17.92,20.08
	l31.04,3.6c3.92,13.44,9.36,26.4,16.24,38.56l-19.6,24.72c-6.4,8.08-5.68,19.6,1.52,26.88l33.76,33.76
	c7.28,7.28,18.8,7.92,26.88,1.52l24.56-19.44c12.64,7.28,26.08,12.96,40.08,16.96l3.68,31.6c1.2,10.24,9.84,17.92,20.08,17.92h47.76
	c10.24,0,18.88-7.68,20.08-17.92l3.52-30.48c15.04-3.92,29.44-9.76,42.96-17.36l23.76,18.8c8.08,6.4,19.6,5.68,26.88-1.52
	l33.76-33.76c7.28-7.28,7.92-18.8,1.52-26.88l-18.48-23.44c7.68-13.28,13.68-27.44,17.68-42.24l28.48-3.28
	c10.24-1.2,17.92-9.84,17.92-20.08v-47.76C-1222.77-1698.11-1230.45-1706.75-1240.7-1707.95z M-1443.81-1530.79
	c-72.97,0-132.12-59.15-132.12-132.12s59.15-132.12,132.12-132.12s132.12,59.15,132.12,132.12S-1370.85-1530.79-1443.81-1530.79z"/>
<path class="st3" d="M-296.47-1836.98h-47.57c-4.46-15.96-14.72-29.36-29.02-37.86c-14.74-8.76-32.01-11.26-48.62-7.02
	c-22.3,5.68-39.79,22.8-45.97,44.88h-235.09c-9.71,0-17.61,7.9-17.61,17.61c0,9.71,7.9,17.61,17.61,17.61h235.09
	c7.89,28.18,33.66,46.87,61.81,46.87c5.23,0,10.54-0.64,15.83-1.99c22.3-5.68,39.79-22.8,45.97-44.88h47.58
	c9.71,0,17.61-7.9,17.61-17.61C-278.86-1829.08-286.76-1836.98-296.47-1836.98z M-376.58-1819.37c0,16.14-13.13,29.27-29.27,29.27
	c-16.14,0-29.27-13.13-29.27-29.27c0-16.14,13.13-29.27,29.27-29.27C-389.71-1848.64-376.58-1835.51-376.58-1819.37z"/>
<path class="st3" d="M-702.75-1645.5h31.95c7.89,28.18,33.66,46.87,61.82,46.87c5.22,0,10.53-0.64,15.82-1.99
	c22.3-5.68,39.79-22.8,45.97-44.88h250.71c9.71,0,17.61-7.9,17.61-17.61c0-9.71-7.9-17.61-17.61-17.61h-250.71
	c-9.35-33.41-43.84-53.49-77.64-44.88c-22.3,5.68-39.79,22.8-45.97,44.88h-31.95c-9.71,0-17.61,7.9-17.61,17.61
	C-720.35-1653.4-712.46-1645.5-702.75-1645.5z M-638.26-1663.11c0-16.14,13.13-29.27,29.27-29.27c16.14,0,29.27,13.13,29.27,29.27
	c0,16.14-13.13,29.27-29.27,29.27C-625.13-1633.84-638.26-1646.97-638.26-1663.11z"/>
<path class="st3" d="M-296.47-1524.46h-78.83c-4.46-15.96-14.72-29.36-29.02-37.86c-14.74-8.76-32.01-11.25-48.62-7.02
	c-22.3,5.68-39.79,22.8-45.97,44.88h-203.84c-9.71,0-17.61,7.9-17.61,17.61c0,9.71,7.9,17.61,17.61,17.61h203.83
	c4.46,15.96,14.72,29.36,29.02,37.86c10.05,5.97,21.28,9.03,32.68,9.03c5.31,0,10.66-0.67,15.95-2.01
	c22.3-5.68,39.79-22.8,45.97-44.88h78.83c9.71,0,17.61-7.9,17.61-17.61C-278.86-1516.56-286.76-1524.46-296.47-1524.46z
	 M-407.83-1506.85c0,16.14-13.13,29.27-29.27,29.27c-16.14,0-29.27-13.13-29.27-29.27c0-16.14,13.13-29.27,29.27-29.27
	C-420.96-1536.12-407.83-1522.99-407.83-1506.85z"/>
<g>
	<path class="st3" d="M596.67-1580.33C596.81-1580.4,597.59-1582.1,596.67-1580.33L596.67-1580.33z"/>
	<path class="st3" d="M511.23-1476.96C507.84-1474.15,511.96-1477.15,511.23-1476.96L511.23-1476.96z"/>
	<path class="st3" d="M595.89-1578.79c0.35-0.69,0.59-1.18,0.78-1.53c-0.08,0.04,0.05-0.46,0.85-2.52
		c12.59-32.28,17.74-68.01,13.6-104.84c-13.65-121.29-123.04-208.54-244.33-194.89c-121.29,13.65-208.54,123.04-194.89,244.33
		c13.65,121.29,123.04,208.54,244.33,194.89c33.85-3.81,65.05-15.08,92.15-31.98c1.82-1.14,2.61-1.56,2.86-1.62
		c0.32-0.26,0.7-0.58,1.17-0.95c14.34-11.63,122.08,29.33,133.08,14.59C653.27-1473.79,590.02-1567.07,595.89-1578.79z
		 M411.55-1484.87c-98.36,11.07-187.07-59.69-198.14-158.05c-11.07-98.36,59.69-187.07,158.05-198.14s187.07,59.69,198.14,158.05
		C580.67-1584.65,509.91-1495.95,411.55-1484.87z"/>
</g>
<circle class="st3" cx="307.11" cy="-1662.96" r="28.07"/>
<circle class="st3" cx="391.4" cy="-1662.96" r="28.07"/>
<circle class="st3" cx="475.91" cy="-1662.96" r="28.07"/>
<path class="st3" d="M1217.64-1662.87l188.69-188.69c7.33-7.33,7.33-19.26,0-26.59c-7.33-7.33-19.26-7.33-26.59,0l-201.99,201.99
	c-7.33,7.33-7.33,19.26,0,26.59l202.01,202.01c3.53,3.41,8.16,5.28,13.06,5.28c0.11,0,0.22,0,0.34,0c5.02-0.09,9.71-2.13,13.2-5.74
	c7.07-7.33,7.07-18.8-0.02-26.15L1217.64-1662.87z"/>
</svg>
