<?xml version="1.0" encoding="utf-8"?>
<!-- Generator: Adobe Illustrator 23.0.0, SVG Export Plug-In . SVG Version: 6.00 Build 0)  -->
<svg version="1.1" id="Ebene_1" xmlns="http://www.w3.org/2000/svg" xmlns:xlink="http://www.w3.org/1999/xlink" x="0px" y="0px"
	 viewBox="0 0 441.49 441.3" style="enable-background:new 0 0 441.49 441.3;" xml:space="preserve">
<style type="text/css">
	.st0{fill:#323232;}
	.st1{fill:#010202;}
	.st2{fill:#FFFFFF;}
</style>
<path class="st2" d="M423.89,46.67h-47.57c-4.46-15.96-14.72-29.36-29.02-37.86c-14.74-8.76-32.01-11.26-48.62-7.02
	c-22.3,5.68-39.79,22.8-45.97,44.88H17.61C7.9,46.67,0,54.57,0,64.28c0,9.71,7.9,17.61,17.61,17.61H252.7
	c7.89,28.18,33.66,46.87,61.81,46.87c5.23,0,10.54-0.64,15.83-1.99c22.3-5.68,39.79-22.8,45.97-44.88h47.58
	c9.71,0,17.61-7.9,17.61-17.61C441.49,54.57,433.6,46.67,423.89,46.67z M343.77,64.28c0,16.14-13.13,29.27-29.27,29.27
	c-16.14,0-29.27-13.13-29.27-29.27c0-16.14,13.13-29.27,29.27-29.27C330.64,35.01,343.77,48.14,343.77,64.28z"/>
<path class="st2" d="M17.61,238.15h31.95c7.89,28.18,33.66,46.87,61.82,46.87c5.23,0,10.53-0.64,15.82-1.99
	c22.3-5.68,39.79-22.8,45.97-44.88h250.71c9.71,0,17.61-7.9,17.61-17.61c0-9.71-7.9-17.61-17.61-17.61H173.17
	c-9.35-33.41-43.84-53.49-77.64-44.88c-22.3,5.68-39.79,22.8-45.97,44.88H17.61C7.9,202.93,0,210.83,0,220.54
	C0,230.25,7.9,238.15,17.61,238.15z M82.1,220.54c0-16.14,13.13-29.27,29.27-29.27c16.14,0,29.27,13.13,29.27,29.27
	s-13.13,29.27-29.27,29.27C95.23,249.81,82.1,236.68,82.1,220.54z"/>
<path class="st2" d="M423.89,359.19h-78.83c-4.46-15.96-14.72-29.36-29.02-37.86c-14.74-8.76-32.01-11.25-48.62-7.02
	c-22.3,5.68-39.79,22.8-45.97,44.88H17.61C7.9,359.19,0,367.09,0,376.8c0,9.71,7.9,17.61,17.61,17.61h203.83
	c4.46,15.96,14.72,29.36,29.02,37.86c10.05,5.97,21.28,9.03,32.68,9.03c5.31,0,10.66-0.66,15.95-2.01
	c22.3-5.68,39.79-22.8,45.97-44.88h78.83c9.71,0,17.61-7.9,17.61-17.61C441.49,367.09,433.6,359.19,423.89,359.19z M312.52,376.8
	c0,16.14-13.13,29.27-29.27,29.27c-16.14,0-29.27-13.13-29.27-29.27c0-16.14,13.13-29.27,29.27-29.27
	C299.39,347.53,312.52,360.66,312.52,376.8z"/>
</svg>
